<svg xmlns="http://www.w3.org/2000/svg" xmlns:xlink="http://www.w3.org/1999/xlink" xmlns:lucid="lucid" width="1523" height="1013.21"><g transform="translate(721.5 371.7083333333333)" lucid:page-tab-id="0_0"><path d="M-1000-500h2000v1500h-2000z" fill="#fff"/><path d="M480-364.2a6 6 0 0 1 6-6h308a6 6 0 0 1 6 6V634a6 6 0 0 1-6 6H486a6 6 0 0 1-6-6z" stroke="#5e5e5e" stroke-width="3" fill="#fcfcca"/><path d="M160-364.2a6 6 0 0 1 6-6h308a6 6 0 0 1 6 6V634a6 6 0 0 1-6 6H166a6 6 0 0 1-6-6z" stroke="#5e5e5e" stroke-width="3" fill="#fff3d9"/><path d="M-300-364.2a6 6 0 0 1 6-6h448a6 6 0 0 1 6 6V634a6 6 0 0 1-6 6h-448a6 6 0 0 1-6-6z" stroke="#5e5e5e" stroke-width="3" fill="#edf5ff"/><path d="M-720-364.2a6 6 0 0 1 6-6h408a6 6 0 0 1 6 6V634a6 6 0 0 1-6 6h-408a6 6 0 0 1-6-6z" stroke="#5e5e5e" stroke-width="3" fill="#e3fae3"/><path d="M-420 125c0 11.74-58.2 21.25-130 21.25s-130-9.5-130-21.25V-45c0-11.74 58.2-21.25 130-21.25s130 9.5 130 21.25z" stroke="#5e5e5e" stroke-width="3" fill="#54c45e"/><path d="M-420-45c0 11.74-58.2 21.25-130 21.25S-680-33.25-680-45" stroke="#5e5e5e" stroke-width="3" fill="none"/><use xlink:href="#a" transform="matrix(1,0,0,1,-675,-18.75) translate(22.77777777777777 42.77777777777778)"/><use xlink:href="#b" transform="matrix(1,0,0,1,-675,-18.75) translate(112.77777777777777 42.77777777777778)"/><use xlink:href="#c" transform="matrix(1,0,0,1,-675,-18.75) translate(49.876543209876544 69.44444444444446)"/><use xlink:href="#d" transform="matrix(1,0,0,1,-675,-18.75) translate(147.28395061728395 69.44444444444446)"/><use xlink:href="#e" transform="matrix(1,0,0,1,-675,-18.75) translate(30.092592592592595 96.11111111111111)"/><use xlink:href="#f" transform="matrix(1,0,0,1,-675,-18.75) translate(95.40123456790123 96.11111111111111)"/><use xlink:href="#g" transform="matrix(1,0,0,1,-675,-18.75) translate(145.95679012345678 96.11111111111111)"/><use xlink:href="#h" transform="matrix(1,0,0,1,-675,-18.75) translate(207.56172839506172 96.11111111111111)"/><use xlink:href="#i" transform="matrix(1,0,0,1,-675,-18.75) translate(0.49382716049382225 122.7777777777778)"/><use xlink:href="#j" transform="matrix(1,0,0,1,-675,-18.75) translate(90.49382716049382 122.7777777777778)"/><use xlink:href="#k" transform="matrix(1,0,0,1,-675,-18.75) translate(121.35802469135803 122.7777777777778)"/><path d="M-420 378.13c0 11.73-58.2 21.25-130 21.25s-130-9.52-130-21.25v-170c0-11.74 58.2-21.25 130-21.25s130 9.5 130 21.25z" stroke="#5e5e5e" stroke-width="3" fill="#54c45e"/><path d="M-420 208.13c0 11.73-58.2 21.25-130 21.25s-130-9.52-130-21.25" stroke="#5e5e5e" stroke-width="3" fill="none"/><use xlink:href="#l" transform="matrix(1,0,0,1,-675,234.375) translate(83.14814814814815 57.77777777777778)"/><use xlink:href="#m" transform="matrix(1,0,0,1,-675,234.375) translate(10.956790123456798 84.44444444444446)"/><use xlink:href="#n" transform="matrix(1,0,0,1,-675,234.375) translate(146.57407407407408 84.44444444444446)"/><use xlink:href="#h" transform="matrix(1,0,0,1,-675,234.375) translate(226.69753086419752 84.44444444444446)"/><use xlink:href="#o" transform="matrix(1,0,0,1,-675,234.375) translate(12.839506172839492 111.11111111111111)"/><use xlink:href="#j" transform="matrix(1,0,0,1,-675,234.375) translate(102.77777777777777 111.11111111111111)"/><use xlink:href="#p" transform="matrix(1,0,0,1,-675,234.375) translate(133.64197530864197 111.11111111111111)"/><path d="M-643.32-244.4a7.8 7.8 0 0 1 7.54-5.8H-426a4.6 4.6 0 0 1 4.45 5.8l-35.13 131.73a7.8 7.8 0 0 1-7.54 5.8H-674a4.6 4.6 0 0 1-4.45-5.8z" stroke="#5e5e5e" stroke-width="3" fill="#54c45e"/><use xlink:href="#q" transform="matrix(1,0,0,1,-675,-245.20833333333331) translate(48.06672839506173 30.34027777777778)"/><use xlink:href="#r" transform="matrix(1,0,0,1,-675,-245.20833333333331) translate(137.94327160493827 30.34027777777778)"/><use xlink:href="#s" transform="matrix(1,0,0,1,-675,-245.20833333333331) translate(187.26425925925926 30.34027777777778)"/><use xlink:href="#t" transform="matrix(1,0,0,1,-675,-245.20833333333331) translate(200.78277777777777 30.34027777777778)"/><use xlink:href="#u" transform="matrix(1,0,0,1,-675,-245.20833333333331) translate(52.64080246913581 57.00694444444445)"/><use xlink:href="#v" transform="matrix(1,0,0,1,-675,-245.20833333333331) translate(94.61611111111111 57.00694444444445)"/><use xlink:href="#w" transform="matrix(1,0,0,1,-675,-245.20833333333331) translate(192.02351851851853 57.00694444444445)"/><use xlink:href="#x" transform="matrix(1,0,0,1,-675,-245.20833333333331) translate(16.5729012345679 83.67361111111111)"/><use xlink:href="#y" transform="matrix(1,0,0,1,-675,-245.20833333333331) translate(84.35067901234568 83.67361111111111)"/><use xlink:href="#z" transform="matrix(1,0,0,1,-675,-245.20833333333331) translate(196.57290123456792 83.67361111111111)"/><use xlink:href="#A" transform="matrix(1,0,0,1,-675,-245.20833333333331) translate(215.09141975308643 83.67361111111111)"/><use xlink:href="#B" transform="matrix(1,0,0,1,-675,-245.20833333333331) translate(22.005000000000003 110.3402777777778)"/><use xlink:href="#C" transform="matrix(1,0,0,1,-675,-245.20833333333331) translate(63.98030864197531 110.3402777777778)"/><use xlink:href="#D" transform="matrix(1,0,0,1,-675,-245.20833333333331) translate(136.69635802469136 110.3402777777778)"/><path d="M-643.32 445.8a7.8 7.8 0 0 1 7.54-5.8H-426a4.6 4.6 0 0 1 4.45 5.8l-35.13 131.74a7.8 7.8 0 0 1-7.54 5.8H-674a4.6 4.6 0 0 1-4.45-5.8z" stroke="#5e5e5e" stroke-width="3" fill="#54c45e"/><use xlink:href="#E" transform="matrix(1,0,0,1,-675,445) translate(40.628456790123465 30.34027777777778)"/><use xlink:href="#s" transform="matrix(1,0,0,1,-675,445) translate(141.67783950617286 30.34027777777778)"/><use xlink:href="#F" transform="matrix(1,0,0,1,-675,445) translate(155.19635802469134 30.34027777777778)"/><use xlink:href="#G" transform="matrix(1,0,0,1,-675,445) translate(21.251913580246903 57.00694444444445)"/><use xlink:href="#H" transform="matrix(1,0,0,1,-675,445) translate(73.04203703703702 57.00694444444445)"/><use xlink:href="#I" transform="matrix(1,0,0,1,-675,445) translate(121.12845679012345 57.00694444444445)"/><use xlink:href="#J" transform="matrix(1,0,0,1,-675,445) translate(211.06672839506172 57.00694444444445)"/><use xlink:href="#K" transform="matrix(1,0,0,1,-675,445) translate(36.91240740740739 83.67361111111111)"/><use xlink:href="#L" transform="matrix(1,0,0,1,-675,445) translate(139.25808641975308 83.67361111111111)"/><use xlink:href="#M" transform="matrix(1,0,0,1,-675,445) translate(77.62228395061727 110.3402777777778)"/><path d="M-200 106a6 6 0 0 1 6-6H74a6 6 0 0 1 6 6v128a6 6 0 0 1-6 6h-268a6 6 0 0 1-6-6z" stroke="#5e5e5e" stroke-width="3" fill="#6db1ff"/><use xlink:href="#N" transform="matrix(1,0,0,1,-188,112) translate(-6.41358024691354 62.44444444444444)"/><path d="M-435.56-178.54h110.03a6 6 0 0 1 6 6V164a6 6 0 0 0 6 6h89.3" stroke="#5e5e5e" stroke-width="4" fill="none"/><path d="M-435.5-176.57h-2.58l1.05-3.95h1.52z" stroke="#5e5e5e" stroke-width=".05" fill="#5e5e5e"/><path d="M-207.97 170l-14.27 4.63v-9.26z" stroke="#5e5e5e" stroke-width="4" fill="#5e5e5e"/><path d="M-416.5 40h90.97a6 6 0 0 1 6 6v118a6 6 0 0 0 6 6h89.3" stroke="#5e5e5e" stroke-width="4" fill="none"/><path d="M-416.45 41.98h-2.05v-3.95h2.05z" stroke="#5e5e5e" stroke-width=".05" fill="#5e5e5e"/><path d="M-207.97 170l-14.27 4.63v-9.26z" stroke="#5e5e5e" stroke-width="4" fill="#5e5e5e"/><path d="M-416.5 293.13h90.97a6 6 0 0 0 6-6V176a6 6 0 0 1 6-6h89.3" stroke="#5e5e5e" stroke-width="4" fill="none"/><path d="M-416.45 295.1h-2.05v-3.95h2.05z" stroke="#5e5e5e" stroke-width=".05" fill="#5e5e5e"/><path d="M-207.97 170l-14.27 4.63v-9.26z" stroke="#5e5e5e" stroke-width="4" fill="#5e5e5e"/><path d="M-435.56 511.67h5.5m7.34 0h11m7.34 0h11m7.33 0h11m7.34 0h11m7.33 0h11m7.34 0h5.5a6 6 0 0 0 6-6v-6.2m0-8.23v-12.36m0-8.24v-12.36m0-8.24v-12.37m0-8.24v-12.36m0-8.24v-12.37m0-8.24v-12.36m0-8.24v-12.36m0-8.25v-12.35m0-8.24v-12.35m0-8.24v-12.36m0-8.24v-12.36m0-8.24v-12.37m0-8.24v-12.37m0-8.24v-12.37m0-8.25v-12.36m0-8.24V176a6 6 0 0 1 6-6h6.7m8.93 0h13.4m8.92 0h13.4m8.92 0h13.4m8.93 0h6.7" stroke="#5e5e5e" stroke-width="4" fill="none"/><path d="M-435.5 513.64h-2.58l1.05-3.95h1.52z" stroke="#5e5e5e" stroke-width=".05" fill="#5e5e5e"/><path d="M-207.97 170l-14.27 4.63v-9.26z" stroke="#5e5e5e" stroke-width="4" fill="#5e5e5e"/><path d="M-160-234a6 6 0 0 1 6-6H34a6 6 0 0 1 6 6v108a6 6 0 0 1-6 6h-188a6 6 0 0 1-6-6z" stroke="#5e5e5e" stroke-width="3" fill="#6db1ff"/><g><use xlink:href="#O" transform="matrix(1,0,0,1,-148,-228) translate(10.43827160493828 26.77777777777778)"/><use xlink:href="#P" transform="matrix(1,0,0,1,-148,-228) translate(25.129629629629626 53.44444444444445)"/><use xlink:href="#Q" transform="matrix(1,0,0,1,-148,-228) translate(126.17901234567901 53.44444444444445)"/><use xlink:href="#R" transform="matrix(1,0,0,1,-148,-228) translate(63.98765432098766 80.11111111111111)"/></g><path d="M-60-116.5V75.76" stroke="#5e5e5e" stroke-width="4" fill="none"/><path d="M-58.02-116.45h-3.95v-2.05h3.95z" stroke="#5e5e5e" stroke-width=".05" fill="#5e5e5e"/><path d="M-60 92.03l-4.64-14.27h9.27z" stroke="#5e5e5e" stroke-width="4" fill="#5e5e5e"/><path d="M-160 466a6 6 0 0 1 6-6H34a6 6 0 0 1 6 6v108a6 6 0 0 1-6 6h-188a6 6 0 0 1-6-6z" stroke="#5e5e5e" stroke-width="3" fill="#6db1ff"/><g><use xlink:href="#S" transform="matrix(1,0,0,1,-148,472) translate(29.45061728395062 26.77777777777778)"/><use xlink:href="#T" transform="matrix(1,0,0,1,-148,472) translate(30.006172839506178 53.44444444444445)"/><use xlink:href="#Q" transform="matrix(1,0,0,1,-148,472) translate(121.30246913580247 53.44444444444445)"/><use xlink:href="#U" transform="matrix(1,0,0,1,-148,472) translate(8.462962962962976 80.11111111111111)"/></g><path d="M-60 456.5V264.24" stroke="#5e5e5e" stroke-width="4" fill="none"/><path d="M-58.02 458.5h-3.95v-2.05h3.95z" stroke="#5e5e5e" stroke-width=".05" fill="#5e5e5e"/><path d="M-60 247.97l4.63 14.27h-9.27z" stroke="#5e5e5e" stroke-width="4" fill="#5e5e5e"/><path d="M235.8 105.8a7.8 7.8 0 0 1 7.53-5.8H434a4.6 4.6 0 0 1 4.45 5.8L404.2 234.2a7.8 7.8 0 0 1-7.53 5.8H206a4.6 4.6 0 0 1-4.45-5.8z" stroke="#5e5e5e" stroke-width="3" fill="#fc9432"/><g><use xlink:href="#V" transform="matrix(1,0,0,1,205,105) translate(50.99882716049383 29.96527777777778)"/><use xlink:href="#W" transform="matrix(1,0,0,1,205,105) translate(140.87537037037038 29.96527777777778)"/><use xlink:href="#X" transform="matrix(1,0,0,1,205,105) translate(192.6654938271605 29.96527777777778)"/><use xlink:href="#Y" transform="matrix(1,0,0,1,205,105) translate(73.505 56.63194444444445)"/><use xlink:href="#Z" transform="matrix(1,0,0,1,205,105) translate(32.55438271604938 83.29861111111111)"/><use xlink:href="#aa" transform="matrix(1,0,0,1,205,105) translate(146.0729012345679 83.29861111111111)"/><use xlink:href="#ab" transform="matrix(1,0,0,1,205,105) translate(20.733395061728395 109.9652777777778)"/><use xlink:href="#j" transform="matrix(1,0,0,1,205,105) translate(98.38771604938272 109.9652777777778)"/><use xlink:href="#ac" transform="matrix(1,0,0,1,205,105) translate(129.25191358024693 109.9652777777778)"/></g><path d="M720 226c0 7.73-35.82 14-80 14s-80-6.27-80-14V114c0-7.73 35.82-14 80-14s80 6.27 80 14z" stroke="#5e5e5e" stroke-width="3" fill="#ffe342"/><path d="M720 114c0 7.73-35.82 14-80 14s-80-6.27-80-14" stroke="#5e5e5e" stroke-width="3" fill="none"/><g><use xlink:href="#ad" transform="matrix(1,0,0,1,565,133) translate(18.919753086419753 56.02777777777778)"/></g><path d="M83.5 170h110.88" stroke="#5e5e5e" stroke-width="4" fill="none"/><path d="M83.55 171.97H81.5v-3.94h2.05z" stroke="#5e5e5e" stroke-width=".05" fill="#5e5e5e"/><path d="M210.64 170l-14.26 4.63v-9.26z" stroke="#5e5e5e" stroke-width="4" fill="#5e5e5e"/><path d="M424.9 170h110.86" stroke="#5e5e5e" stroke-width="4" fill="none"/><path d="M424.94 171.97h-2.58l1.05-3.94h1.54z" stroke="#5e5e5e" stroke-width=".05" fill="#5e5e5e"/><path d="M552.03 170l-14.27 4.63v-9.26z" stroke="#5e5e5e" stroke-width="4" fill="#5e5e5e"/><path d="M-704.97-354a6 6 0 0 1 6-6h377.94a6 6 0 0 1 6 6v30a6 6 0 0 1-6 6h-377.94a6 6 0 0 1-6-6z" fill="none"/><g><use xlink:href="#ae" transform="matrix(1,0,0,1,-699.9679629629629,-355) translate(0 21.833333333333336)"/><use xlink:href="#af" transform="matrix(1,0,0,1,-699.9679629629629,-355) translate(122.66666666666667 21.833333333333336)"/><use xlink:href="#ag" transform="matrix(1,0,0,1,-699.9679629629629,-355) translate(144.88888888888889 21.833333333333336)"/><use xlink:href="#ah" transform="matrix(1,0,0,1,-699.9679629629629,-355) translate(245.4074074074074 21.833333333333336)"/><use xlink:href="#ai" transform="matrix(1,0,0,1,-699.9679629629629,-355) translate(283.85185185185185 21.833333333333336)"/></g><path d="M-164.12-354a6 6 0 0 1 6-6H38.12a6 6 0 0 1 6 6v30a6 6 0 0 1-6 6h-196.24a6 6 0 0 1-6-6z" fill="none"/><g><use xlink:href="#aj" transform="matrix(1,0,0,1,-159.1161111111111,-355) translate(0 21.833333333333336)"/></g><path d="M207.8-354a6 6 0 0 1 6-6h212.4a6 6 0 0 1 6 6v30a6 6 0 0 1-6 6H213.8a6 6 0 0 1-6-6z" fill="none"/><g><use xlink:href="#ak" transform="matrix(1,0,0,1,212.8098148148148,-355) translate(0 21.833333333333336)"/><use xlink:href="#al" transform="matrix(1,0,0,1,212.8098148148148,-355) translate(107.85185185185186 21.833333333333336)"/><use xlink:href="#am" transform="matrix(1,0,0,1,212.8098148148148,-355) translate(146.2962962962963 21.833333333333336)"/></g><path d="M498.14-354a6 6 0 0 1 6-6h271.72a6 6 0 0 1 6 6v30a6 6 0 0 1-6 6H504.14a6 6 0 0 1-6-6z" fill="none"/><g><use xlink:href="#an" transform="matrix(1,0,0,1,503.14314814814816,-355) translate(0 21.833333333333336)"/><use xlink:href="#al" transform="matrix(1,0,0,1,503.14314814814816,-355) translate(144.962962962963 21.833333333333336)"/><use xlink:href="#ao" transform="matrix(1,0,0,1,503.14314814814816,-355) translate(183.40740740740745 21.833333333333336)"/></g><defs><path d="M24 0v-248h52V0H24" id="ap"/><path d="M25 0v-261h50V0H25" id="aq"/><path d="M85 4C-2 5 27-109 22-190h50c7 57-23 150 33 157 60-5 35-97 40-157h50l1 190h-47c-2-12 1-28-3-38-12 25-28 42-61 42" id="ar"/><path d="M220-157c-53 9-28 100-34 157h-49v-107c1-27-5-49-29-50C55-147 81-57 75 0H25l-1-190h47c2 12-1 28 3 38 10-53 101-56 108 0 13-22 24-43 59-42 82 1 51 116 57 194h-49v-107c-1-25-5-48-29-50" id="as"/><path d="M25-224v-37h50v37H25zM25 0v-190h50V0H25" id="at"/><path d="M135-194c87-1 58 113 63 194h-50c-7-57 23-157-34-157-59 0-34 97-39 157H25l-1-190h47c2 12-1 28 3 38 12-26 28-41 61-42" id="au"/><path d="M133-34C117-15 103 5 69 4 32 3 11-16 11-54c-1-60 55-63 116-61 1-26-3-47-28-47-18 1-26 9-28 27l-52-2c7-38 36-58 82-57s74 22 75 68l1 82c-1 14 12 18 25 15v27c-30 8-71 5-69-32zm-48 3c29 0 43-24 42-57-32 0-66-3-65 30 0 17 8 27 23 27" id="av"/><g id="a"><use transform="matrix(0.06172839506172839,0,0,0.06172839506172839,0,0)" xlink:href="#ap"/><use transform="matrix(0.06172839506172839,0,0,0.06172839506172839,6.172839506172839,0)" xlink:href="#aq"/><use transform="matrix(0.06172839506172839,0,0,0.06172839506172839,12.345679012345679,0)" xlink:href="#aq"/><use transform="matrix(0.06172839506172839,0,0,0.06172839506172839,18.51851851851852,0)" xlink:href="#ar"/><use transform="matrix(0.06172839506172839,0,0,0.06172839506172839,32.03703703703704,0)" xlink:href="#as"/><use transform="matrix(0.06172839506172839,0,0,0.06172839506172839,51.79012345679013,0)" xlink:href="#at"/><use transform="matrix(0.06172839506172839,0,0,0.06172839506172839,57.96296296296297,0)" xlink:href="#au"/><use transform="matrix(0.06172839506172839,0,0,0.06172839506172839,71.48148148148148,0)" xlink:href="#av"/></g><path d="M67-125c0 53 21 87 73 88 37 1 54-22 65-47l45 17C233-25 199 4 140 4 58 4 20-42 15-125 8-235 124-281 211-232c18 10 29 29 36 50l-46 12c-8-25-30-41-62-41-52 0-71 34-72 86" id="aw"/><path d="M110-194c64 0 96 36 96 99 0 64-35 99-97 99-61 0-95-36-95-99 0-62 34-99 96-99zm-1 164c35 0 45-28 45-65 0-40-10-65-43-65-34 0-45 26-45 65 0 36 10 65 43 65" id="ax"/><path d="M185-48c-13 30-37 53-82 52C43 2 14-33 14-96s30-98 90-98c62 0 83 45 84 108H66c0 31 8 55 39 56 18 0 30-7 34-22zm-45-69c5-46-57-63-70-21-2 6-4 13-4 21h74" id="ay"/><path d="M190-63c-7 42-38 67-86 67-59 0-84-38-90-98-12-110 154-137 174-36l-49 2c-2-19-15-32-35-32-30 0-35 28-38 64-6 74 65 87 74 30" id="az"/><path d="M115-3C79 11 28 4 28-45v-112H4v-33h27l15-45h31v45h36v33H77v99c-1 23 16 31 38 25v30" id="aA"/><path d="M88-194c31-1 46 15 58 34l-1-101h50l1 261h-48c-2-10 0-23-3-31C134-8 116 4 84 4 32 4 16-41 15-95c0-56 19-97 73-99zm17 164c33 0 40-30 41-66 1-37-9-64-41-64s-38 30-39 65c0 43 13 65 39 65" id="aB"/><g id="b"><use transform="matrix(0.06172839506172839,0,0,0.06172839506172839,0,0)" xlink:href="#aw"/><use transform="matrix(0.06172839506172839,0,0,0.06172839506172839,15.987654320987653,0)" xlink:href="#ax"/><use transform="matrix(0.06172839506172839,0,0,0.06172839506172839,29.50617283950617,0)" xlink:href="#au"/><use transform="matrix(0.06172839506172839,0,0,0.06172839506172839,43.02469135802469,0)" xlink:href="#au"/><use transform="matrix(0.06172839506172839,0,0,0.06172839506172839,56.54320987654321,0)" xlink:href="#ay"/><use transform="matrix(0.06172839506172839,0,0,0.06172839506172839,68.88888888888889,0)" xlink:href="#az"/><use transform="matrix(0.06172839506172839,0,0,0.06172839506172839,81.23456790123457,0)" xlink:href="#aA"/><use transform="matrix(0.06172839506172839,0,0,0.06172839506172839,88.58024691358025,0)" xlink:href="#ay"/><use transform="matrix(0.06172839506172839,0,0,0.06172839506172839,100.92592592592594,0)" xlink:href="#aB"/></g><path d="M199 0l-22-63H83L61 0H9l90-248h61L250 0h-51zm-33-102l-36-108c-10 38-24 72-36 108h72" id="aC"/><path d="M123 10C108 53 80 86 19 72V37c35 8 53-11 59-39L3-190h52l48 148c12-52 28-100 44-148h51" id="aD"/><path d="M137-138c1-29-70-34-71-4 15 46 118 7 119 86 1 83-164 76-172 9l43-7c4 19 20 25 44 25 33 8 57-30 24-41C81-84 22-81 20-136c-2-80 154-74 161-7" id="aE"/><g id="c"><use transform="matrix(0.06172839506172839,0,0,0.06172839506172839,0,0)" xlink:href="#aC"/><use transform="matrix(0.06172839506172839,0,0,0.06172839506172839,15.987654320987653,0)" xlink:href="#au"/><use transform="matrix(0.06172839506172839,0,0,0.06172839506172839,29.50617283950617,0)" xlink:href="#av"/><use transform="matrix(0.06172839506172839,0,0,0.06172839506172839,41.85185185185185,0)" xlink:href="#aq"/><use transform="matrix(0.06172839506172839,0,0,0.06172839506172839,48.02469135802469,0)" xlink:href="#aD"/><use transform="matrix(0.06172839506172839,0,0,0.06172839506172839,60.37037037037037,0)" xlink:href="#aE"/><use transform="matrix(0.06172839506172839,0,0,0.06172839506172839,72.71604938271605,0)" xlink:href="#at"/><use transform="matrix(0.06172839506172839,0,0,0.06172839506172839,78.88888888888889,0)" xlink:href="#aE"/></g><path d="M67-93c0 74 22 123 53 168H70C40 30 18-18 18-93s22-123 52-168h50c-32 44-53 94-53 168" id="aF"/><path d="M102-93c0 74-22 123-52 168H0C30 29 54-18 53-93c0-74-22-123-53-168h50c30 45 52 94 52 168" id="aG"/><g id="d"><use transform="matrix(0.06172839506172839,0,0,0.06172839506172839,0,0)" xlink:href="#aF"/><use transform="matrix(0.06172839506172839,0,0,0.06172839506172839,7.345679012345679,0)" xlink:href="#ap"/><use transform="matrix(0.06172839506172839,0,0,0.06172839506172839,13.518518518518519,0)" xlink:href="#aw"/><use transform="matrix(0.06172839506172839,0,0,0.06172839506172839,29.50617283950617,0)" xlink:href="#aC"/><use transform="matrix(0.06172839506172839,0,0,0.06172839506172839,45.49382716049382,0)" xlink:href="#aG"/></g><path d="M87 75C49 33 22-17 22-94c0-76 28-126 65-167h31c-38 41-64 92-64 168S80 34 118 75H87" id="aH"/><path d="M30 0v-248h33v221h125V0H30" id="aI"/><path d="M24-231v-30h32v30H24zM24 0v-190h32V0H24" id="aJ"/><path d="M117-194c89-4 53 116 60 194h-32v-121c0-31-8-49-39-48C34-167 62-67 57 0H25l-1-190h30c1 10-1 24 2 32 11-22 29-35 61-36" id="aK"/><path d="M143 0L79-87 56-68V0H24v-261h32v163l83-92h37l-77 82L181 0h-38" id="aL"/><path d="M135-143c-3-34-86-38-87 0 15 53 115 12 119 90S17 21 10-45l28-5c4 36 97 45 98 0-10-56-113-15-118-90-4-57 82-63 122-42 12 7 21 19 24 35" id="aM"/><g id="e"><use transform="matrix(0.06172839506172839,0,0,0.06172839506172839,0,0)" xlink:href="#aH"/><use transform="matrix(0.06172839506172839,0,0,0.06172839506172839,7.345679012345679,0)" xlink:href="#aI"/><use transform="matrix(0.06172839506172839,0,0,0.06172839506172839,19.691358024691358,0)" xlink:href="#aJ"/><use transform="matrix(0.06172839506172839,0,0,0.06172839506172839,24.5679012345679,0)" xlink:href="#aK"/><use transform="matrix(0.06172839506172839,0,0,0.06172839506172839,36.913580246913575,0)" xlink:href="#aL"/><use transform="matrix(0.06172839506172839,0,0,0.06172839506172839,48.02469135802468,0)" xlink:href="#aM"/></g><path d="M115-194c55 1 70 41 70 98S169 2 115 4C84 4 66-9 55-30l1 105H24l-1-265h31l2 30c10-21 28-34 59-34zm-8 174c40 0 45-34 45-75s-6-73-45-74c-42 0-51 32-51 76 0 43 10 73 51 73" id="aN"/><path d="M141-36C126-15 110 5 73 4 37 3 15-17 15-53c-1-64 63-63 125-63 3-35-9-54-41-54-24 1-41 7-42 31l-33-3c5-37 33-52 76-52 45 0 72 20 72 64v82c-1 20 7 32 28 27v20c-31 9-61-2-59-35zM48-53c0 20 12 33 32 33 41-3 63-29 60-74-43 2-92-5-92 41" id="aO"/><path d="M114-163C36-179 61-72 57 0H25l-1-190h30c1 12-1 29 2 39 6-27 23-49 58-41v29" id="aP"/><g id="f"><use transform="matrix(0.06172839506172839,0,0,0.06172839506172839,0,0)" xlink:href="#aN"/><use transform="matrix(0.06172839506172839,0,0,0.06172839506172839,12.345679012345679,0)" xlink:href="#aO"/><use transform="matrix(0.06172839506172839,0,0,0.06172839506172839,24.691358024691358,0)" xlink:href="#aP"/><use transform="matrix(0.06172839506172839,0,0,0.06172839506172839,32.03703703703704,0)" xlink:href="#aO"/></g><path d="M137 0h-34L2-248h35l83 218 83-218h36" id="aQ"/><path d="M212-179c-10-28-35-45-73-45-59 0-87 40-87 99 0 60 29 101 89 101 43 0 62-24 78-52l27 14C228-24 195 4 139 4 59 4 22-46 18-125c-6-104 99-153 187-111 19 9 31 26 39 46" id="aR"/><path d="M63-220v92h138v28H63V0H30v-248h175v28H63" id="aS"/><g id="g"><use transform="matrix(0.06172839506172839,0,0,0.06172839506172839,0,0)" xlink:href="#aQ"/><use transform="matrix(0.06172839506172839,0,0,0.06172839506172839,14.814814814814813,0)" xlink:href="#aR"/><use transform="matrix(0.06172839506172839,0,0,0.06172839506172839,30.80246913580247,0)" xlink:href="#aS"/><use transform="matrix(0.06172839506172839,0,0,0.06172839506172839,44.32098765432099,0)" xlink:href="#aM"/></g><path d="M100-194c63 0 86 42 84 106H49c0 40 14 67 53 68 26 1 43-12 49-29l28 8c-11 28-37 45-77 45C44 4 14-33 15-96c1-61 26-98 85-98zm52 81c6-60-76-77-97-28-3 7-6 17-6 28h103" id="aT"/><use transform="matrix(0.06172839506172839,0,0,0.06172839506172839,0,0)" xlink:href="#aT" id="h"/><path d="M145-31C134-9 116 4 85 4 32 4 16-35 15-94c0-59 17-99 70-100 32-1 48 14 60 33 0-11-1-24 2-32h30l-1 268h-32zM93-21c41 0 51-33 51-76s-8-73-50-73c-40 0-46 35-46 75s5 74 45 74" id="aU"/><path d="M84 4C-5 8 30-112 23-190h32v120c0 31 7 50 39 49 72-2 45-101 50-169h31l1 190h-30c-1-10 1-25-2-33-11 22-28 36-60 37" id="aV"/><path d="M108 0H70L1-190h34L89-25l56-165h34" id="aW"/><path d="M100-194c62-1 85 37 85 99 1 63-27 99-86 99S16-35 15-95c0-66 28-99 85-99zM99-20c44 1 53-31 53-75 0-43-8-75-51-75s-53 32-53 75 10 74 51 75" id="aX"/><g id="i"><use transform="matrix(0.06172839506172839,0,0,0.06172839506172839,0,0)" xlink:href="#aO"/><use transform="matrix(0.06172839506172839,0,0,0.06172839506172839,12.345679012345679,0)" xlink:href="#aP"/><use transform="matrix(0.06172839506172839,0,0,0.06172839506172839,19.691358024691358,0)" xlink:href="#aU"/><use transform="matrix(0.06172839506172839,0,0,0.06172839506172839,32.03703703703704,0)" xlink:href="#aV"/><use transform="matrix(0.06172839506172839,0,0,0.06172839506172839,44.382716049382715,0)" xlink:href="#aJ"/><use transform="matrix(0.06172839506172839,0,0,0.06172839506172839,49.25925925925926,0)" xlink:href="#aW"/><use transform="matrix(0.06172839506172839,0,0,0.06172839506172839,60.37037037037037,0)" xlink:href="#aX"/><use transform="matrix(0.06172839506172839,0,0,0.06172839506172839,72.71604938271605,0)" xlink:href="#aM"/></g><path d="M85-194c31 0 48 13 60 33l-1-100h32l1 261h-30c-2-10 0-23-3-31C134-8 116 4 85 4 32 4 16-35 15-94c0-66 23-100 70-100zm9 24c-40 0-46 34-46 75 0 40 6 74 45 74 42 0 51-32 51-76 0-42-9-74-50-73" id="aY"/><g id="j"><use transform="matrix(0.06172839506172839,0,0,0.06172839506172839,0,0)" xlink:href="#aY"/><use transform="matrix(0.06172839506172839,0,0,0.06172839506172839,12.345679012345679,0)" xlink:href="#aT"/></g><path d="M24 0v-261h32V0H24" id="aZ"/><path d="M9 0v-24l116-142H16v-24h144v24L44-24h123V0H9" id="ba"/><path d="M96-169c-40 0-48 33-48 73s9 75 48 75c24 0 41-14 43-38l32 2c-6 37-31 61-74 61-59 0-76-41-82-99-10-93 101-131 147-64 4 7 5 14 7 22l-32 3c-4-21-16-35-41-35zm3 187c19-1 33 8 33 26 0 31-30 33-64 32V58c18 2 39 4 41-13 1-15-18-13-34-13L87 0h19" id="bb"/><path d="M141-36C126-15 110 5 73 4 37 3 15-17 15-53c-1-64 63-63 125-63 3-35-9-54-41-54-24 1-41 7-42 31l-33-3c5-37 33-52 76-52 45 0 72 20 72 64v82c-1 20 7 32 28 27v20c-31 9-61-2-59-35zM48-53c0 20 12 33 32 33 41-3 63-29 60-74-43 2-92-5-92 41zm117-205c-3 23-9 48-36 47-26-1-65-44-74 0H39c4-23 8-48 36-47s64 44 74 0h16" id="bc"/><path d="M33-261c38 41 65 92 65 168S71 34 33 75H2C39 34 66-17 66-93S39-220 2-261h31" id="bd"/><g id="k"><use transform="matrix(0.06172839506172839,0,0,0.06172839506172839,0,0)" xlink:href="#aW"/><use transform="matrix(0.06172839506172839,0,0,0.06172839506172839,11.11111111111111,0)" xlink:href="#aJ"/><use transform="matrix(0.06172839506172839,0,0,0.06172839506172839,15.987654320987653,0)" xlink:href="#aM"/><use transform="matrix(0.06172839506172839,0,0,0.06172839506172839,27.098765432098766,0)" xlink:href="#aV"/><use transform="matrix(0.06172839506172839,0,0,0.06172839506172839,39.44444444444444,0)" xlink:href="#aO"/><use transform="matrix(0.06172839506172839,0,0,0.06172839506172839,51.79012345679012,0)" xlink:href="#aZ"/><use transform="matrix(0.06172839506172839,0,0,0.06172839506172839,56.666666666666664,0)" xlink:href="#aJ"/><use transform="matrix(0.06172839506172839,0,0,0.06172839506172839,61.54320987654321,0)" xlink:href="#ba"/><use transform="matrix(0.06172839506172839,0,0,0.06172839506172839,72.65432098765432,0)" xlink:href="#aO"/><use transform="matrix(0.06172839506172839,0,0,0.06172839506172839,85,0)" xlink:href="#bb"/><use transform="matrix(0.06172839506172839,0,0,0.06172839506172839,96.11111111111111,0)" xlink:href="#bc"/><use transform="matrix(0.06172839506172839,0,0,0.06172839506172839,108.4567901234568,0)" xlink:href="#aX"/><use transform="matrix(0.06172839506172839,0,0,0.06172839506172839,120.80246913580248,0)" xlink:href="#bd"/></g><path d="M240-174c0 40-23 61-54 70L253 0h-59l-57-94H76V0H24v-248c93 4 217-23 216 74zM76-134c48-2 112 12 112-38 0-48-66-32-112-35v73" id="be"/><path d="M135-194c53 0 70 44 70 98 0 56-19 98-73 100-31 1-45-17-59-34 3 33 2 69 2 105H25l-1-265h48c2 10 0 23 3 31 11-24 29-35 60-35zM114-30c33 0 39-31 40-66 0-38-9-64-40-64-56 0-55 130 0 130" id="bf"/><g id="l"><use transform="matrix(0.06172839506172839,0,0,0.06172839506172839,0,0)" xlink:href="#be"/><use transform="matrix(0.06172839506172839,0,0,0.06172839506172839,15.987654320987653,0)" xlink:href="#ay"/><use transform="matrix(0.06172839506172839,0,0,0.06172839506172839,28.333333333333332,0)" xlink:href="#aB"/><use transform="matrix(0.06172839506172839,0,0,0.06172839506172839,41.85185185185185,0)" xlink:href="#aw"/><use transform="matrix(0.06172839506172839,0,0,0.06172839506172839,57.8395061728395,0)" xlink:href="#av"/><use transform="matrix(0.06172839506172839,0,0,0.06172839506172839,70.18518518518518,0)" xlink:href="#bf"/></g><path d="M33 0v-248h34V0H33" id="bg"/><path d="M101-234c-31-9-42 10-38 44h38v23H63V0H32v-167H5v-23h27c-7-52 17-82 69-68v24" id="bh"/><path d="M210-169c-67 3-38 105-44 169h-31v-121c0-29-5-50-35-48C34-165 62-65 56 0H25l-1-190h30c1 10-1 24 2 32 10-44 99-50 107 0 11-21 27-35 58-36 85-2 47 119 55 194h-31v-121c0-29-5-49-35-48" id="bi"/><path d="M100-194c62-1 85 37 85 99 1 63-27 99-86 99S16-35 15-95c0-66 28-99 85-99zM99-20c44 1 53-31 53-75 0-43-8-75-51-75s-53 32-53 75 10 74 51 75zm66-238c-3 23-9 48-36 47-26-1-65-44-74 0H39c4-23 8-48 36-47s64 44 74 0h16" id="bj"/><g id="m"><use transform="matrix(0.06172839506172839,0,0,0.06172839506172839,0,0)" xlink:href="#aH"/><use transform="matrix(0.06172839506172839,0,0,0.06172839506172839,7.345679012345679,0)" xlink:href="#bg"/><use transform="matrix(0.06172839506172839,0,0,0.06172839506172839,13.518518518518519,0)" xlink:href="#aK"/><use transform="matrix(0.06172839506172839,0,0,0.06172839506172839,25.864197530864196,0)" xlink:href="#bh"/><use transform="matrix(0.06172839506172839,0,0,0.06172839506172839,32.03703703703704,0)" xlink:href="#aX"/><use transform="matrix(0.06172839506172839,0,0,0.06172839506172839,44.382716049382715,0)" xlink:href="#aP"/><use transform="matrix(0.06172839506172839,0,0,0.06172839506172839,51.72839506172839,0)" xlink:href="#bi"/><use transform="matrix(0.06172839506172839,0,0,0.06172839506172839,70.18518518518518,0)" xlink:href="#aO"/><use transform="matrix(0.06172839506172839,0,0,0.06172839506172839,82.53086419753086,0)" xlink:href="#bb"/><use transform="matrix(0.06172839506172839,0,0,0.06172839506172839,93.64197530864197,0)" xlink:href="#bj"/><use transform="matrix(0.06172839506172839,0,0,0.06172839506172839,105.98765432098766,0)" xlink:href="#aT"/><use transform="matrix(0.06172839506172839,0,0,0.06172839506172839,118.33333333333334,0)" xlink:href="#aM"/></g><path d="M96-169c-40 0-48 33-48 73s9 75 48 75c24 0 41-14 43-38l32 2c-6 37-31 61-74 61-59 0-76-41-82-99-10-93 101-131 147-64 4 7 5 14 7 22l-32 3c-4-21-16-35-41-35" id="bk"/><path d="M34 0v-190h32V0H34zM24-211c8-23 27-35 38-54h36v5l-58 49H24" id="bl"/><g id="n"><use transform="matrix(0.06172839506172839,0,0,0.06172839506172839,0,0)" xlink:href="#bk"/><use transform="matrix(0.06172839506172839,0,0,0.06172839506172839,11.11111111111111,0)" xlink:href="#aZ"/><use transform="matrix(0.06172839506172839,0,0,0.06172839506172839,15.987654320987653,0)" xlink:href="#bl"/><use transform="matrix(0.06172839506172839,0,0,0.06172839506172839,22.160493827160494,0)" xlink:href="#aK"/><use transform="matrix(0.06172839506172839,0,0,0.06172839506172839,34.50617283950617,0)" xlink:href="#aJ"/><use transform="matrix(0.06172839506172839,0,0,0.06172839506172839,39.382716049382715,0)" xlink:href="#bk"/><use transform="matrix(0.06172839506172839,0,0,0.06172839506172839,50.49382716049382,0)" xlink:href="#aO"/><use transform="matrix(0.06172839506172839,0,0,0.06172839506172839,62.8395061728395,0)" xlink:href="#aM"/></g><path d="M100-194c63 0 86 42 84 106H49c0 40 14 67 53 68 26 1 43-12 49-29l28 8c-11 28-37 45-77 45C44 4 14-33 15-96c1-61 26-98 85-98zm52 81c6-60-76-77-97-28-3 7-6 17-6 28h103zm-74-98c8-23 27-35 38-54h36v5l-58 49H78" id="bm"/><path d="M59-47c-2 24 18 29 38 22v24C64 9 27 4 27-40v-127H5v-23h24l9-43h21v43h35v23H59v120" id="bn"/><g id="o"><use transform="matrix(0.06172839506172839,0,0,0.06172839506172839,0,0)" xlink:href="#bi"/><use transform="matrix(0.06172839506172839,0,0,0.06172839506172839,18.456790123456788,0)" xlink:href="#bm"/><use transform="matrix(0.06172839506172839,0,0,0.06172839506172839,30.80246913580247,0)" xlink:href="#bn"/><use transform="matrix(0.06172839506172839,0,0,0.06172839506172839,36.97530864197531,0)" xlink:href="#aP"/><use transform="matrix(0.06172839506172839,0,0,0.06172839506172839,44.32098765432099,0)" xlink:href="#aJ"/><use transform="matrix(0.06172839506172839,0,0,0.06172839506172839,49.19753086419753,0)" xlink:href="#bk"/><use transform="matrix(0.06172839506172839,0,0,0.06172839506172839,60.308641975308646,0)" xlink:href="#aO"/><use transform="matrix(0.06172839506172839,0,0,0.06172839506172839,72.65432098765433,0)" xlink:href="#aM"/></g><g id="p"><use transform="matrix(0.06172839506172839,0,0,0.06172839506172839,0,0)" xlink:href="#aU"/><use transform="matrix(0.06172839506172839,0,0,0.06172839506172839,12.345679012345679,0)" xlink:href="#aV"/><use transform="matrix(0.06172839506172839,0,0,0.06172839506172839,24.691358024691358,0)" xlink:href="#aO"/><use transform="matrix(0.06172839506172839,0,0,0.06172839506172839,37.03703703703704,0)" xlink:href="#aZ"/><use transform="matrix(0.06172839506172839,0,0,0.06172839506172839,41.91358024691358,0)" xlink:href="#aJ"/><use transform="matrix(0.06172839506172839,0,0,0.06172839506172839,46.79012345679013,0)" xlink:href="#aY"/><use transform="matrix(0.06172839506172839,0,0,0.06172839506172839,59.135802469135804,0)" xlink:href="#aO"/><use transform="matrix(0.06172839506172839,0,0,0.06172839506172839,71.48148148148148,0)" xlink:href="#aY"/><use transform="matrix(0.06172839506172839,0,0,0.06172839506172839,83.82716049382717,0)" xlink:href="#aT"/><use transform="matrix(0.06172839506172839,0,0,0.06172839506172839,96.17283950617285,0)" xlink:href="#bd"/></g><path d="M135-150c-39-12-60 13-60 57V0H25l-1-190h47c2 13-1 29 3 40 6-28 27-53 61-41v41" id="bo"/><path d="M84 4C32 4 15-41 15-95c0-55 18-99 73-99 29 0 47 12 58 34l2-30h48l-1 265h-49V-32C136-9 114 4 84 4zm21-34c32 0 41-29 41-66 0-36-9-64-40-64-33 0-39 30-40 65 0 43 13 65 39 65" id="bp"/><path d="M128 0H69L1-190h53L99-40l48-150h52" id="bq"/><g id="q"><use transform="matrix(0.06172839506172839,0,0,0.06172839506172839,0,0)" xlink:href="#aC"/><use transform="matrix(0.06172839506172839,0,0,0.06172839506172839,15.987654320987653,0)" xlink:href="#bo"/><use transform="matrix(0.06172839506172839,0,0,0.06172839506172839,24.629629629629626,0)" xlink:href="#bp"/><use transform="matrix(0.06172839506172839,0,0,0.06172839506172839,38.148148148148145,0)" xlink:href="#ar"/><use transform="matrix(0.06172839506172839,0,0,0.06172839506172839,51.666666666666664,0)" xlink:href="#at"/><use transform="matrix(0.06172839506172839,0,0,0.06172839506172839,57.839506172839506,0)" xlink:href="#bq"/><use transform="matrix(0.06172839506172839,0,0,0.06172839506172839,70.18518518518519,0)" xlink:href="#ax"/></g><path d="M136-208V0H84v-208H4v-40h212v40h-80" id="br"/><path d="M169-182c-1-43-94-46-97-3 18 66 151 10 154 114 3 95-165 93-204 36-6-8-10-19-12-30l50-8c3 46 112 56 116 5-17-69-150-10-154-114-4-87 153-88 188-35 5 8 8 18 10 28" id="bs"/><path d="M147 0H94L2-248h55l64 206c17-72 42-137 63-206h54" id="bt"/><g id="r"><use transform="matrix(0.06172839506172839,0,0,0.06172839506172839,0,0)" xlink:href="#br"/><use transform="matrix(0.06172839506172839,0,0,0.06172839506172839,13.518518518518517,0)" xlink:href="#bs"/><use transform="matrix(0.06172839506172839,0,0,0.06172839506172839,28.33333333333333,0)" xlink:href="#bt"/></g><path d="M16-82v-28h88v28H16" id="bu"/><use transform="matrix(0.06172839506172839,0,0,0.06172839506172839,0,0)" xlink:href="#bu" id="s"/><path d="M30-248c118-7 216 8 213 122C240-48 200 0 122 0H30v-248zM63-27c89 8 146-16 146-99s-60-101-146-95v194" id="bv"/><g id="t"><use transform="matrix(0.06172839506172839,0,0,0.06172839506172839,0,0)" xlink:href="#bg"/><use transform="matrix(0.06172839506172839,0,0,0.06172839506172839,6.172839506172839,0)" xlink:href="#bv"/></g><g id="u"><use transform="matrix(0.06172839506172839,0,0,0.06172839506172839,0,0)" xlink:href="#aY"/><use transform="matrix(0.06172839506172839,0,0,0.06172839506172839,12.345679012345679,0)" xlink:href="#aO"/><use transform="matrix(0.06172839506172839,0,0,0.06172839506172839,24.691358024691358,0)" xlink:href="#aM"/></g><g id="v"><use transform="matrix(0.06172839506172839,0,0,0.06172839506172839,0,0)" xlink:href="#aO"/><use transform="matrix(0.06172839506172839,0,0,0.06172839506172839,12.345679012345679,0)" xlink:href="#bi"/><use transform="matrix(0.06172839506172839,0,0,0.06172839506172839,30.80246913580247,0)" xlink:href="#aX"/><use transform="matrix(0.06172839506172839,0,0,0.06172839506172839,43.148148148148145,0)" xlink:href="#aM"/><use transform="matrix(0.06172839506172839,0,0,0.06172839506172839,54.25925925925925,0)" xlink:href="#bn"/><use transform="matrix(0.06172839506172839,0,0,0.06172839506172839,60.432098765432094,0)" xlink:href="#aP"/><use transform="matrix(0.06172839506172839,0,0,0.06172839506172839,67.77777777777777,0)" xlink:href="#aO"/><use transform="matrix(0.06172839506172839,0,0,0.06172839506172839,80.12345679012346,0)" xlink:href="#aM"/></g><use transform="matrix(0.06172839506172839,0,0,0.06172839506172839,0,0)" xlink:href="#aO" id="w"/><g id="x"><use transform="matrix(0.06172839506172839,0,0,0.06172839506172839,0,0)" xlink:href="#aM"/><use transform="matrix(0.06172839506172839,0,0,0.06172839506172839,11.11111111111111,0)" xlink:href="#aT"/><use transform="matrix(0.06172839506172839,0,0,0.06172839506172839,23.45679012345679,0)" xlink:href="#aP"/><use transform="matrix(0.06172839506172839,0,0,0.06172839506172839,30.80246913580247,0)" xlink:href="#aT"/><use transform="matrix(0.06172839506172839,0,0,0.06172839506172839,43.148148148148145,0)" xlink:href="#bi"/></g><g id="y"><use transform="matrix(0.06172839506172839,0,0,0.06172839506172839,0,0)" xlink:href="#aO"/><use transform="matrix(0.06172839506172839,0,0,0.06172839506172839,12.345679012345679,0)" xlink:href="#aK"/><use transform="matrix(0.06172839506172839,0,0,0.06172839506172839,24.691358024691358,0)" xlink:href="#aO"/><use transform="matrix(0.06172839506172839,0,0,0.06172839506172839,37.03703703703704,0)" xlink:href="#aZ"/><use transform="matrix(0.06172839506172839,0,0,0.06172839506172839,41.91358024691358,0)" xlink:href="#aJ"/><use transform="matrix(0.06172839506172839,0,0,0.06172839506172839,46.79012345679013,0)" xlink:href="#aM"/><use transform="matrix(0.06172839506172839,0,0,0.06172839506172839,57.90123456790124,0)" xlink:href="#aO"/><use transform="matrix(0.06172839506172839,0,0,0.06172839506172839,70.24691358024693,0)" xlink:href="#aY"/><use transform="matrix(0.06172839506172839,0,0,0.06172839506172839,82.59259259259261,0)" xlink:href="#aO"/><use transform="matrix(0.06172839506172839,0,0,0.06172839506172839,94.9382716049383,0)" xlink:href="#aM"/></g><use transform="matrix(0.06172839506172839,0,0,0.06172839506172839,0,0)" xlink:href="#aT" id="z"/><use transform="matrix(0.06172839506172839,0,0,0.06172839506172839,0,0)" xlink:href="#aX" id="A"/><g id="B"><use transform="matrix(0.06172839506172839,0,0,0.06172839506172839,0,0)" xlink:href="#aM"/><use transform="matrix(0.06172839506172839,0,0,0.06172839506172839,11.11111111111111,0)" xlink:href="#aT"/><use transform="matrix(0.06172839506172839,0,0,0.06172839506172839,23.45679012345679,0)" xlink:href="#aV"/></g><g id="C"><use transform="matrix(0.06172839506172839,0,0,0.06172839506172839,0,0)" xlink:href="#aR"/><use transform="matrix(0.06172839506172839,0,0,0.06172839506172839,15.987654320987653,0)" xlink:href="#aT"/><use transform="matrix(0.06172839506172839,0,0,0.06172839506172839,28.333333333333332,0)" xlink:href="#aK"/><use transform="matrix(0.06172839506172839,0,0,0.06172839506172839,40.67901234567901,0)" xlink:href="#bn"/><use transform="matrix(0.06172839506172839,0,0,0.06172839506172839,46.851851851851855,0)" xlink:href="#aP"/><use transform="matrix(0.06172839506172839,0,0,0.06172839506172839,54.19753086419753,0)" xlink:href="#aX"/></g><path d="M139-315c12 16 30 27 39 46-29 2-38-16-57-24-19 8-29 26-59 24 10-19 29-29 41-46h36zM205 0l-28-72H64L36 0H1l101-248h38L239 0h-34zm-38-99l-47-123c-12 45-31 82-46 123h93" id="bw"/><g id="D"><use transform="matrix(0.06172839506172839,0,0,0.06172839506172839,0,0)" xlink:href="#bw"/><use transform="matrix(0.06172839506172839,0,0,0.06172839506172839,14.814814814814813,0)" xlink:href="#aK"/><use transform="matrix(0.06172839506172839,0,0,0.06172839506172839,27.160493827160494,0)" xlink:href="#bk"/><use transform="matrix(0.06172839506172839,0,0,0.06172839506172839,38.27160493827161,0)" xlink:href="#aX"/><use transform="matrix(0.06172839506172839,0,0,0.06172839506172839,50.617283950617285,0)" xlink:href="#aP"/><use transform="matrix(0.06172839506172839,0,0,0.06172839506172839,57.96296296296296,0)" xlink:href="#aO"/></g><path d="M140-251c80 0 125 45 125 126S219 4 139 4C58 4 15-44 15-125s44-126 125-126zm-1 214c52 0 73-35 73-88 0-50-21-86-72-86-52 0-73 35-73 86s22 88 72 88" id="bx"/><g id="E"><use transform="matrix(0.06172839506172839,0,0,0.06172839506172839,0,0)" xlink:href="#bx"/><use transform="matrix(0.06172839506172839,0,0,0.06172839506172839,17.28395061728395,0)" xlink:href="#bf"/><use transform="matrix(0.06172839506172839,0,0,0.06172839506172839,30.80246913580247,0)" xlink:href="#az"/><use transform="matrix(0.06172839506172839,0,0,0.06172839506172839,43.148148148148145,0)" xlink:href="#at"/><use transform="matrix(0.06172839506172839,0,0,0.06172839506172839,49.32098765432099,0)" xlink:href="#ax"/><use transform="matrix(0.06172839506172839,0,0,0.06172839506172839,62.839506172839506,0)" xlink:href="#au"/><use transform="matrix(0.06172839506172839,0,0,0.06172839506172839,76.35802469135803,0)" xlink:href="#av"/><use transform="matrix(0.06172839506172839,0,0,0.06172839506172839,88.70370370370371,0)" xlink:href="#aq"/></g><path d="M205 0l-28-72H64L36 0H1l101-248h38L239 0h-34zm-38-99l-47-123c-12 45-31 82-46 123h93" id="by"/><g id="F"><use transform="matrix(0.06172839506172839,0,0,0.06172839506172839,0,0)" xlink:href="#by"/><use transform="matrix(0.06172839506172839,0,0,0.06172839506172839,14.814814814814813,0)" xlink:href="#aP"/><use transform="matrix(0.06172839506172839,0,0,0.06172839506172839,22.160493827160494,0)" xlink:href="#aU"/><use transform="matrix(0.06172839506172839,0,0,0.06172839506172839,34.50617283950617,0)" xlink:href="#aV"/><use transform="matrix(0.06172839506172839,0,0,0.06172839506172839,46.85185185185185,0)" xlink:href="#aJ"/><use transform="matrix(0.06172839506172839,0,0,0.06172839506172839,51.72839506172839,0)" xlink:href="#aW"/><use transform="matrix(0.06172839506172839,0,0,0.06172839506172839,62.839506172839506,0)" xlink:href="#aX"/></g><path d="M185-189c-5-48-123-54-124 2 14 75 158 14 163 119 3 78-121 87-175 55-17-10-28-26-33-46l33-7c5 56 141 63 141-1 0-78-155-14-162-118-5-82 145-84 179-34 5 7 8 16 11 25" id="bz"/><g id="G"><use transform="matrix(0.06172839506172839,0,0,0.06172839506172839,0,0)" xlink:href="#aR"/><use transform="matrix(0.06172839506172839,0,0,0.06172839506172839,15.987654320987653,0)" xlink:href="#bz"/><use transform="matrix(0.06172839506172839,0,0,0.06172839506172839,30.80246913580247,0)" xlink:href="#aQ"/></g><g id="H"><use transform="matrix(0.06172839506172839,0,0,0.06172839506172839,0,0)" xlink:href="#bk"/><use transform="matrix(0.06172839506172839,0,0,0.06172839506172839,11.11111111111111,0)" xlink:href="#aX"/><use transform="matrix(0.06172839506172839,0,0,0.06172839506172839,23.45679012345679,0)" xlink:href="#bi"/></g><g id="I"><use transform="matrix(0.06172839506172839,0,0,0.06172839506172839,0,0)" xlink:href="#bi"/><use transform="matrix(0.06172839506172839,0,0,0.06172839506172839,18.456790123456788,0)" xlink:href="#bm"/><use transform="matrix(0.06172839506172839,0,0,0.06172839506172839,30.80246913580247,0)" xlink:href="#bn"/><use transform="matrix(0.06172839506172839,0,0,0.06172839506172839,36.97530864197531,0)" xlink:href="#aP"/><use transform="matrix(0.06172839506172839,0,0,0.06172839506172839,44.32098765432099,0)" xlink:href="#aJ"/><use transform="matrix(0.06172839506172839,0,0,0.06172839506172839,49.19753086419753,0)" xlink:href="#bk"/><use transform="matrix(0.06172839506172839,0,0,0.06172839506172839,60.308641975308646,0)" xlink:href="#aO"/><use transform="matrix(0.06172839506172839,0,0,0.06172839506172839,72.65432098765433,0)" xlink:href="#aM"/></g><g id="J"><use transform="matrix(0.06172839506172839,0,0,0.06172839506172839,0,0)" xlink:href="#aY"/><use transform="matrix(0.06172839506172839,0,0,0.06172839506172839,12.345679012345679,0)" xlink:href="#aT"/></g><g id="K"><use transform="matrix(0.06172839506172839,0,0,0.06172839506172839,0,0)" xlink:href="#aU"/><use transform="matrix(0.06172839506172839,0,0,0.06172839506172839,12.345679012345679,0)" xlink:href="#aV"/><use transform="matrix(0.06172839506172839,0,0,0.06172839506172839,24.691358024691358,0)" xlink:href="#aO"/><use transform="matrix(0.06172839506172839,0,0,0.06172839506172839,37.03703703703704,0)" xlink:href="#aZ"/><use transform="matrix(0.06172839506172839,0,0,0.06172839506172839,41.91358024691358,0)" xlink:href="#aJ"/><use transform="matrix(0.06172839506172839,0,0,0.06172839506172839,46.79012345679013,0)" xlink:href="#aY"/><use transform="matrix(0.06172839506172839,0,0,0.06172839506172839,59.135802469135804,0)" xlink:href="#aO"/><use transform="matrix(0.06172839506172839,0,0,0.06172839506172839,71.48148148148148,0)" xlink:href="#aY"/><use transform="matrix(0.06172839506172839,0,0,0.06172839506172839,83.82716049382717,0)" xlink:href="#aT"/></g><g id="L"><use transform="matrix(0.06172839506172839,0,0,0.06172839506172839,0,0)" xlink:href="#aH"/><use transform="matrix(0.06172839506172839,0,0,0.06172839506172839,7.345679012345679,0)" xlink:href="#aX"/><use transform="matrix(0.06172839506172839,0,0,0.06172839506172839,19.691358024691358,0)" xlink:href="#aN"/><use transform="matrix(0.06172839506172839,0,0,0.06172839506172839,32.03703703703704,0)" xlink:href="#bb"/><use transform="matrix(0.06172839506172839,0,0,0.06172839506172839,43.14814814814815,0)" xlink:href="#bc"/><use transform="matrix(0.06172839506172839,0,0,0.06172839506172839,55.49382716049383,0)" xlink:href="#aX"/></g><g id="M"><use transform="matrix(0.06172839506172839,0,0,0.06172839506172839,0,0)" xlink:href="#bu"/><use transform="matrix(0.06172839506172839,0,0,0.06172839506172839,7.345679012345679,0)" xlink:href="#bu"/><use transform="matrix(0.06172839506172839,0,0,0.06172839506172839,14.691358024691358,0)" xlink:href="#aU"/><use transform="matrix(0.06172839506172839,0,0,0.06172839506172839,27.037037037037038,0)" xlink:href="#bk"/><use transform="matrix(0.06172839506172839,0,0,0.06172839506172839,38.14814814814815,0)" xlink:href="#bh"/><use transform="matrix(0.06172839506172839,0,0,0.06172839506172839,44.320987654320994,0)" xlink:href="#aJ"/><use transform="matrix(0.06172839506172839,0,0,0.06172839506172839,49.19753086419754,0)" xlink:href="#aZ"/><use transform="matrix(0.06172839506172839,0,0,0.06172839506172839,54.07407407407408,0)" xlink:href="#aT"/><use transform="matrix(0.06172839506172839,0,0,0.06172839506172839,66.41975308641976,0)" xlink:href="#bd"/></g><path d="M-4 44V30h207v14H-4" id="bA"/><path d="M195-6C206 82 75 100 31 46c-4-6-6-13-8-21l49-6c3 16 16 24 34 25 40 0 42-37 40-79-11 22-30 35-61 35-53 0-70-43-70-97 0-56 18-96 73-97 30 0 46 14 59 34l2-30h47zm-90-29c32 0 41-27 41-63 0-35-9-62-40-62-32 0-39 29-40 63 0 36 9 62 39 62" id="bB"/><path d="M24 0v-54h51V0H24" id="bC"/><g id="N"><use transform="matrix(0.06172839506172839,0,0,0.06172839506172839,0,0)" xlink:href="#az"/><use transform="matrix(0.06172839506172839,0,0,0.06172839506172839,12.345679012345679,0)" xlink:href="#bo"/><use transform="matrix(0.06172839506172839,0,0,0.06172839506172839,20.98765432098765,0)" xlink:href="#ay"/><use transform="matrix(0.06172839506172839,0,0,0.06172839506172839,33.33333333333333,0)" xlink:href="#av"/><use transform="matrix(0.06172839506172839,0,0,0.06172839506172839,45.679012345679006,0)" xlink:href="#aA"/><use transform="matrix(0.06172839506172839,0,0,0.06172839506172839,53.02469135802468,0)" xlink:href="#ay"/><use transform="matrix(0.06172839506172839,0,0,0.06172839506172839,65.37037037037037,0)" xlink:href="#bA"/><use transform="matrix(0.06172839506172839,0,0,0.06172839506172839,77.71604938271605,0)" xlink:href="#az"/><use transform="matrix(0.06172839506172839,0,0,0.06172839506172839,90.06172839506173,0)" xlink:href="#aE"/><use transform="matrix(0.06172839506172839,0,0,0.06172839506172839,102.40740740740742,0)" xlink:href="#bq"/><use transform="matrix(0.06172839506172839,0,0,0.06172839506172839,114.7530864197531,0)" xlink:href="#bA"/><use transform="matrix(0.06172839506172839,0,0,0.06172839506172839,127.09876543209879,0)" xlink:href="#ay"/><use transform="matrix(0.06172839506172839,0,0,0.06172839506172839,139.44444444444446,0)" xlink:href="#as"/><use transform="matrix(0.06172839506172839,0,0,0.06172839506172839,159.19753086419755,0)" xlink:href="#ay"/><use transform="matrix(0.06172839506172839,0,0,0.06172839506172839,171.54320987654322,0)" xlink:href="#aB"/><use transform="matrix(0.06172839506172839,0,0,0.06172839506172839,185.06172839506172,0)" xlink:href="#bB"/><use transform="matrix(0.06172839506172839,0,0,0.06172839506172839,198.58024691358023,0)" xlink:href="#ay"/><use transform="matrix(0.06172839506172839,0,0,0.06172839506172839,210.9259259259259,0)" xlink:href="#au"/><use transform="matrix(0.06172839506172839,0,0,0.06172839506172839,224.4444444444444,0)" xlink:href="#ay"/><use transform="matrix(0.06172839506172839,0,0,0.06172839506172839,236.79012345679007,0)" xlink:href="#bC"/><use transform="matrix(0.06172839506172839,0,0,0.06172839506172839,242.9629629629629,0)" xlink:href="#bf"/><use transform="matrix(0.06172839506172839,0,0,0.06172839506172839,256.4814814814814,0)" xlink:href="#aD"/></g><path d="M24 0v-248h52v208h133V0H24" id="bD"/><path d="M238-95c0 69-44 99-111 99C63 4 22-25 22-93v-155h51v151c-1 38 19 59 55 60 90 1 49-130 58-211h52v153" id="bE"/><g id="O"><use transform="matrix(0.06172839506172839,0,0,0.06172839506172839,0,0)" xlink:href="#bD"/><use transform="matrix(0.06172839506172839,0,0,0.06172839506172839,13.518518518518517,0)" xlink:href="#ax"/><use transform="matrix(0.06172839506172839,0,0,0.06172839506172839,27.037037037037035,0)" xlink:href="#bB"/><use transform="matrix(0.06172839506172839,0,0,0.06172839506172839,40.55555555555555,0)" xlink:href="#bB"/><use transform="matrix(0.06172839506172839,0,0,0.06172839506172839,54.07407407407407,0)" xlink:href="#ay"/><use transform="matrix(0.06172839506172839,0,0,0.06172839506172839,66.41975308641975,0)" xlink:href="#bo"/><use transform="matrix(0.06172839506172839,0,0,0.06172839506172839,75.06172839506172,0)" xlink:href="#bE"/><use transform="matrix(0.06172839506172839,0,0,0.06172839506172839,91.04938271604938,0)" xlink:href="#aA"/><use transform="matrix(0.06172839506172839,0,0,0.06172839506172839,98.39506172839506,0)" xlink:href="#at"/><use transform="matrix(0.06172839506172839,0,0,0.06172839506172839,104.5679012345679,0)" xlink:href="#aq"/><use transform="matrix(0.06172839506172839,0,0,0.06172839506172839,110.74074074074073,0)" xlink:href="#aE"/><use transform="matrix(0.06172839506172839,0,0,0.06172839506172839,123.08641975308642,0)" xlink:href="#bC"/><use transform="matrix(0.06172839506172839,0,0,0.06172839506172839,129.25925925925927,0)" xlink:href="#bf"/><use transform="matrix(0.06172839506172839,0,0,0.06172839506172839,142.77777777777777,0)" xlink:href="#aD"/></g><g id="P"><use transform="matrix(0.06172839506172839,0,0,0.06172839506172839,0,0)" xlink:href="#aH"/><use transform="matrix(0.06172839506172839,0,0,0.06172839506172839,7.345679012345679,0)" xlink:href="#aT"/><use transform="matrix(0.06172839506172839,0,0,0.06172839506172839,19.691358024691358,0)" xlink:href="#aM"/><use transform="matrix(0.06172839506172839,0,0,0.06172839506172839,30.80246913580247,0)" xlink:href="#bn"/><use transform="matrix(0.06172839506172839,0,0,0.06172839506172839,36.97530864197531,0)" xlink:href="#aP"/><use transform="matrix(0.06172839506172839,0,0,0.06172839506172839,44.32098765432099,0)" xlink:href="#aV"/><use transform="matrix(0.06172839506172839,0,0,0.06172839506172839,56.666666666666664,0)" xlink:href="#bn"/><use transform="matrix(0.06172839506172839,0,0,0.06172839506172839,62.839506172839506,0)" xlink:href="#aV"/><use transform="matrix(0.06172839506172839,0,0,0.06172839506172839,75.18518518518519,0)" xlink:href="#aP"/><use transform="matrix(0.06172839506172839,0,0,0.06172839506172839,82.53086419753087,0)" xlink:href="#aO"/></g><g id="Q"><use transform="matrix(0.06172839506172839,0,0,0.06172839506172839,0,0)" xlink:href="#aY"/><use transform="matrix(0.06172839506172839,0,0,0.06172839506172839,12.345679012345679,0)" xlink:href="#aT"/></g><path d="M177-190C167-65 218 103 67 71c-23-6-38-20-44-43l32-5c15 47 100 32 89-28v-30C133-14 115 1 83 1 29 1 15-40 15-95c0-56 16-97 71-98 29-1 48 16 59 35 1-10 0-23 2-32h30zM94-22c36 0 50-32 50-73 0-42-14-75-50-75-39 0-46 34-46 75s6 73 46 73" id="bF"/><g id="R"><use transform="matrix(0.06172839506172839,0,0,0.06172839506172839,0,0)" xlink:href="#aZ"/><use transform="matrix(0.06172839506172839,0,0,0.06172839506172839,4.876543209876543,0)" xlink:href="#aX"/><use transform="matrix(0.06172839506172839,0,0,0.06172839506172839,17.22222222222222,0)" xlink:href="#bF"/><use transform="matrix(0.06172839506172839,0,0,0.06172839506172839,29.5679012345679,0)" xlink:href="#aM"/><use transform="matrix(0.06172839506172839,0,0,0.06172839506172839,40.67901234567901,0)" xlink:href="#bd"/></g><g id="S"><use transform="matrix(0.06172839506172839,0,0,0.06172839506172839,0,0)" xlink:href="#az"/><use transform="matrix(0.06172839506172839,0,0,0.06172839506172839,12.345679012345679,0)" xlink:href="#aE"/><use transform="matrix(0.06172839506172839,0,0,0.06172839506172839,24.691358024691358,0)" xlink:href="#bq"/><use transform="matrix(0.06172839506172839,0,0,0.06172839506172839,37.03703703703704,0)" xlink:href="#bE"/><use transform="matrix(0.06172839506172839,0,0,0.06172839506172839,53.02469135802469,0)" xlink:href="#aA"/><use transform="matrix(0.06172839506172839,0,0,0.06172839506172839,60.37037037037037,0)" xlink:href="#at"/><use transform="matrix(0.06172839506172839,0,0,0.06172839506172839,66.5432098765432,0)" xlink:href="#aq"/><use transform="matrix(0.06172839506172839,0,0,0.06172839506172839,72.71604938271604,0)" xlink:href="#aE"/><use transform="matrix(0.06172839506172839,0,0,0.06172839506172839,85.06172839506172,0)" xlink:href="#bC"/><use transform="matrix(0.06172839506172839,0,0,0.06172839506172839,91.23456790123456,0)" xlink:href="#bf"/><use transform="matrix(0.06172839506172839,0,0,0.06172839506172839,104.75308641975307,0)" xlink:href="#aD"/></g><g id="T"><use transform="matrix(0.06172839506172839,0,0,0.06172839506172839,0,0)" xlink:href="#aH"/><use transform="matrix(0.06172839506172839,0,0,0.06172839506172839,7.345679012345679,0)" xlink:href="#bh"/><use transform="matrix(0.06172839506172839,0,0,0.06172839506172839,13.518518518518519,0)" xlink:href="#aV"/><use transform="matrix(0.06172839506172839,0,0,0.06172839506172839,25.864197530864196,0)" xlink:href="#aK"/><use transform="matrix(0.06172839506172839,0,0,0.06172839506172839,38.20987654320987,0)" xlink:href="#bb"/><use transform="matrix(0.06172839506172839,0,0,0.06172839506172839,49.32098765432099,0)" xlink:href="#bj"/><use transform="matrix(0.06172839506172839,0,0,0.06172839506172839,61.666666666666664,0)" xlink:href="#aT"/><use transform="matrix(0.06172839506172839,0,0,0.06172839506172839,74.01234567901234,0)" xlink:href="#aM"/></g><g id="U"><use transform="matrix(0.06172839506172839,0,0,0.06172839506172839,0,0)" xlink:href="#aN"/><use transform="matrix(0.06172839506172839,0,0,0.06172839506172839,12.345679012345679,0)" xlink:href="#aP"/><use transform="matrix(0.06172839506172839,0,0,0.06172839506172839,19.691358024691358,0)" xlink:href="#aX"/><use transform="matrix(0.06172839506172839,0,0,0.06172839506172839,32.03703703703704,0)" xlink:href="#bk"/><use transform="matrix(0.06172839506172839,0,0,0.06172839506172839,43.14814814814815,0)" xlink:href="#aT"/><use transform="matrix(0.06172839506172839,0,0,0.06172839506172839,55.49382716049383,0)" xlink:href="#aM"/><use transform="matrix(0.06172839506172839,0,0,0.06172839506172839,66.60493827160494,0)" xlink:href="#aM"/><use transform="matrix(0.06172839506172839,0,0,0.06172839506172839,77.71604938271605,0)" xlink:href="#aO"/><use transform="matrix(0.06172839506172839,0,0,0.06172839506172839,90.06172839506173,0)" xlink:href="#bi"/><use transform="matrix(0.06172839506172839,0,0,0.06172839506172839,108.51851851851852,0)" xlink:href="#aT"/><use transform="matrix(0.06172839506172839,0,0,0.06172839506172839,120.8641975308642,0)" xlink:href="#aK"/><use transform="matrix(0.06172839506172839,0,0,0.06172839506172839,133.20987654320987,0)" xlink:href="#bn"/><use transform="matrix(0.06172839506172839,0,0,0.06172839506172839,139.3827160493827,0)" xlink:href="#aX"/><use transform="matrix(0.06172839506172839,0,0,0.06172839506172839,151.72839506172838,0)" xlink:href="#bd"/></g><g id="V"><use transform="matrix(0.06172839506172839,0,0,0.06172839506172839,0,0)" xlink:href="#aC"/><use transform="matrix(0.06172839506172839,0,0,0.06172839506172839,15.987654320987653,0)" xlink:href="#bo"/><use transform="matrix(0.06172839506172839,0,0,0.06172839506172839,24.629629629629626,0)" xlink:href="#bp"/><use transform="matrix(0.06172839506172839,0,0,0.06172839506172839,38.148148148148145,0)" xlink:href="#ar"/><use transform="matrix(0.06172839506172839,0,0,0.06172839506172839,51.666666666666664,0)" xlink:href="#at"/><use transform="matrix(0.06172839506172839,0,0,0.06172839506172839,57.839506172839506,0)" xlink:href="#bq"/><use transform="matrix(0.06172839506172839,0,0,0.06172839506172839,70.18518518518519,0)" xlink:href="#ax"/></g><g id="W"><use transform="matrix(0.06172839506172839,0,0,0.06172839506172839,0,0)" xlink:href="#aw"/><use transform="matrix(0.06172839506172839,0,0,0.06172839506172839,15.987654320987653,0)" xlink:href="#bs"/><use transform="matrix(0.06172839506172839,0,0,0.06172839506172839,30.80246913580247,0)" xlink:href="#bt"/></g><use transform="matrix(0.06172839506172839,0,0,0.06172839506172839,0,0)" xlink:href="#bu" id="X"/><path d="M30 0v-248h187v28H63v79h144v27H63v87h162V0H30" id="bG"/><g id="Y"><use transform="matrix(0.06172839506172839,0,0,0.06172839506172839,0,0)" xlink:href="#bG"/><use transform="matrix(0.06172839506172839,0,0,0.06172839506172839,14.814814814814813,0)" xlink:href="#aM"/><use transform="matrix(0.06172839506172839,0,0,0.06172839506172839,25.925925925925924,0)" xlink:href="#bn"/><use transform="matrix(0.06172839506172839,0,0,0.06172839506172839,32.098765432098766,0)" xlink:href="#aP"/><use transform="matrix(0.06172839506172839,0,0,0.06172839506172839,39.44444444444444,0)" xlink:href="#aV"/><use transform="matrix(0.06172839506172839,0,0,0.06172839506172839,51.79012345679012,0)" xlink:href="#bn"/><use transform="matrix(0.06172839506172839,0,0,0.06172839506172839,57.96296296296296,0)" xlink:href="#aV"/><use transform="matrix(0.06172839506172839,0,0,0.06172839506172839,70.30864197530865,0)" xlink:href="#aP"/><use transform="matrix(0.06172839506172839,0,0,0.06172839506172839,77.65432098765433,0)" xlink:href="#aO"/></g><g id="Z"><use transform="matrix(0.06172839506172839,0,0,0.06172839506172839,0,0)" xlink:href="#bG"/><use transform="matrix(0.06172839506172839,0,0,0.06172839506172839,14.814814814814813,0)" xlink:href="#bi"/><use transform="matrix(0.06172839506172839,0,0,0.06172839506172839,33.2716049382716,0)" xlink:href="#aT"/><use transform="matrix(0.06172839506172839,0,0,0.06172839506172839,45.61728395061728,0)" xlink:href="#aY"/><use transform="matrix(0.06172839506172839,0,0,0.06172839506172839,57.962962962962955,0)" xlink:href="#bF"/><use transform="matrix(0.06172839506172839,0,0,0.06172839506172839,70.30864197530863,0)" xlink:href="#aT"/><use transform="matrix(0.06172839506172839,0,0,0.06172839506172839,82.65432098765432,0)" xlink:href="#aK"/><use transform="matrix(0.06172839506172839,0,0,0.06172839506172839,95,0)" xlink:href="#aT"/></g><g id="aa"><use transform="matrix(0.06172839506172839,0,0,0.06172839506172839,0,0)" xlink:href="#aN"/><use transform="matrix(0.06172839506172839,0,0,0.06172839506172839,12.345679012345679,0)" xlink:href="#aO"/><use transform="matrix(0.06172839506172839,0,0,0.06172839506172839,24.691358024691358,0)" xlink:href="#aP"/><use transform="matrix(0.06172839506172839,0,0,0.06172839506172839,32.03703703703704,0)" xlink:href="#aO"/></g><g id="ab"><use transform="matrix(0.06172839506172839,0,0,0.06172839506172839,0,0)" xlink:href="#bk"/><use transform="matrix(0.06172839506172839,0,0,0.06172839506172839,11.11111111111111,0)" xlink:href="#aP"/><use transform="matrix(0.06172839506172839,0,0,0.06172839506172839,18.45679012345679,0)" xlink:href="#aJ"/><use transform="matrix(0.06172839506172839,0,0,0.06172839506172839,23.333333333333336,0)" xlink:href="#aO"/><use transform="matrix(0.06172839506172839,0,0,0.06172839506172839,35.67901234567901,0)" xlink:href="#bb"/><use transform="matrix(0.06172839506172839,0,0,0.06172839506172839,46.79012345679013,0)" xlink:href="#bc"/><use transform="matrix(0.06172839506172839,0,0,0.06172839506172839,59.135802469135804,0)" xlink:href="#aX"/></g><g id="ac"><use transform="matrix(0.06172839506172839,0,0,0.06172839506172839,0,0)" xlink:href="#bk"/><use transform="matrix(0.06172839506172839,0,0,0.06172839506172839,11.11111111111111,0)" xlink:href="#aO"/><use transform="matrix(0.06172839506172839,0,0,0.06172839506172839,23.45679012345679,0)" xlink:href="#aM"/><use transform="matrix(0.06172839506172839,0,0,0.06172839506172839,34.5679012345679,0)" xlink:href="#aX"/><use transform="matrix(0.06172839506172839,0,0,0.06172839506172839,46.913580246913575,0)" xlink:href="#aM"/></g><path d="M24 0v-248h195v40H76v63h132v40H76v65h150V0H24" id="bH"/><g id="ad"><use transform="matrix(0.06172839506172839,0,0,0.06172839506172839,0,0)" xlink:href="#bH"/><use transform="matrix(0.06172839506172839,0,0,0.06172839506172839,14.814814814814813,0)" xlink:href="#as"/><use transform="matrix(0.06172839506172839,0,0,0.06172839506172839,34.5679012345679,0)" xlink:href="#ay"/><use transform="matrix(0.06172839506172839,0,0,0.06172839506172839,46.913580246913575,0)" xlink:href="#aB"/><use transform="matrix(0.06172839506172839,0,0,0.06172839506172839,60.432098765432094,0)" xlink:href="#bB"/><use transform="matrix(0.06172839506172839,0,0,0.06172839506172839,73.9506172839506,0)" xlink:href="#ay"/><use transform="matrix(0.06172839506172839,0,0,0.06172839506172839,86.29629629629629,0)" xlink:href="#au"/><use transform="matrix(0.06172839506172839,0,0,0.06172839506172839,99.81481481481481,0)" xlink:href="#ay"/></g><g id="ae"><use transform="matrix(0.07407407407407408,0,0,0.07407407407407408,0,0)" xlink:href="#aC"/><use transform="matrix(0.07407407407407408,0,0,0.07407407407407408,19.185185185185187,0)" xlink:href="#bo"/><use transform="matrix(0.07407407407407408,0,0,0.07407407407407408,29.555555555555554,0)" xlink:href="#bp"/><use transform="matrix(0.07407407407407408,0,0,0.07407407407407408,45.777777777777786,0)" xlink:href="#ar"/><use transform="matrix(0.07407407407407408,0,0,0.07407407407407408,62.000000000000014,0)" xlink:href="#at"/><use transform="matrix(0.07407407407407408,0,0,0.07407407407407408,69.40740740740742,0)" xlink:href="#bq"/><use transform="matrix(0.07407407407407408,0,0,0.07407407407407408,84.22222222222223,0)" xlink:href="#ax"/><use transform="matrix(0.07407407407407408,0,0,0.07407407407407408,100.44444444444446,0)" xlink:href="#aE"/></g><use transform="matrix(0.07407407407407408,0,0,0.07407407407407408,0,0)" xlink:href="#ay" id="af"/><path d="M135-194c52 0 70 43 70 98 0 56-19 99-73 100-30 1-46-15-58-35L72 0H24l1-261h50v104c11-23 29-37 60-37zM114-30c31 0 40-27 40-66 0-37-7-63-39-63s-41 28-41 65c0 36 8 64 40 64" id="bI"/><g id="ag"><use transform="matrix(0.07407407407407408,0,0,0.07407407407407408,0,0)" xlink:href="#bI"/><use transform="matrix(0.07407407407407408,0,0,0.07407407407407408,16.222222222222225,0)" xlink:href="#av"/><use transform="matrix(0.07407407407407408,0,0,0.07407407407407408,31.03703703703704,0)" xlink:href="#au"/><use transform="matrix(0.07407407407407408,0,0,0.07407407407407408,47.25925925925927,0)" xlink:href="#az"/><use transform="matrix(0.07407407407407408,0,0,0.07407407407407408,62.07407407407408,0)" xlink:href="#ax"/><use transform="matrix(0.07407407407407408,0,0,0.07407407407407408,78.2962962962963,0)" xlink:href="#aE"/></g><g id="ah"><use transform="matrix(0.07407407407407408,0,0,0.07407407407407408,0,0)" xlink:href="#aB"/><use transform="matrix(0.07407407407407408,0,0,0.07407407407407408,16.222222222222225,0)" xlink:href="#ay"/></g><g id="ai"><use transform="matrix(0.07407407407407408,0,0,0.07407407407407408,0,0)" xlink:href="#ay"/><use transform="matrix(0.07407407407407408,0,0,0.07407407407407408,14.814814814814817,0)" xlink:href="#au"/><use transform="matrix(0.07407407407407408,0,0,0.07407407407407408,31.03703703703704,0)" xlink:href="#aA"/><use transform="matrix(0.07407407407407408,0,0,0.07407407407407408,39.85185185185187,0)" xlink:href="#bo"/><use transform="matrix(0.07407407407407408,0,0,0.07407407407407408,50.222222222222236,0)" xlink:href="#av"/><use transform="matrix(0.07407407407407408,0,0,0.07407407407407408,65.03703703703705,0)" xlink:href="#aB"/><use transform="matrix(0.07407407407407408,0,0,0.07407407407407408,81.25925925925928,0)" xlink:href="#av"/></g><path d="M24-248c93 1 206-16 204 79-1 75-69 88-152 82V0H24v-248zm52 121c47 0 100 7 100-41 0-47-54-39-100-39v80" id="bJ"/><g id="aj"><use transform="matrix(0.07407407407407408,0,0,0.07407407407407408,0,0)" xlink:href="#bJ"/><use transform="matrix(0.07407407407407408,0,0,0.07407407407407408,17.77777777777778,0)" xlink:href="#bo"/><use transform="matrix(0.07407407407407408,0,0,0.07407407407407408,28.148148148148152,0)" xlink:href="#ax"/><use transform="matrix(0.07407407407407408,0,0,0.07407407407407408,44.37037037037039,0)" xlink:href="#az"/><use transform="matrix(0.07407407407407408,0,0,0.07407407407407408,59.185185185185205,0)" xlink:href="#ay"/><use transform="matrix(0.07407407407407408,0,0,0.07407407407407408,74.00000000000001,0)" xlink:href="#aE"/><use transform="matrix(0.07407407407407408,0,0,0.07407407407407408,88.81481481481484,0)" xlink:href="#aE"/><use transform="matrix(0.07407407407407408,0,0,0.07407407407407408,103.62962962962965,0)" xlink:href="#av"/><use transform="matrix(0.07407407407407408,0,0,0.07407407407407408,118.44444444444446,0)" xlink:href="#as"/><use transform="matrix(0.07407407407407408,0,0,0.07407407407407408,142.14814814814815,0)" xlink:href="#ay"/><use transform="matrix(0.07407407407407408,0,0,0.07407407407407408,156.96296296296296,0)" xlink:href="#au"/><use transform="matrix(0.07407407407407408,0,0,0.07407407407407408,173.18518518518516,0)" xlink:href="#aA"/><use transform="matrix(0.07407407407407408,0,0,0.07407407407407408,182,0)" xlink:href="#ax"/></g><g id="ak"><use transform="matrix(0.07407407407407408,0,0,0.07407407407407408,0,0)" xlink:href="#aC"/><use transform="matrix(0.07407407407407408,0,0,0.07407407407407408,19.185185185185187,0)" xlink:href="#bo"/><use transform="matrix(0.07407407407407408,0,0,0.07407407407407408,29.555555555555554,0)" xlink:href="#bp"/><use transform="matrix(0.07407407407407408,0,0,0.07407407407407408,45.777777777777786,0)" xlink:href="#ar"/><use transform="matrix(0.07407407407407408,0,0,0.07407407407407408,62.000000000000014,0)" xlink:href="#at"/><use transform="matrix(0.07407407407407408,0,0,0.07407407407407408,69.40740740740742,0)" xlink:href="#bq"/><use transform="matrix(0.07407407407407408,0,0,0.07407407407407408,84.22222222222223,0)" xlink:href="#ax"/></g><g id="al"><use transform="matrix(0.07407407407407408,0,0,0.07407407407407408,0,0)" xlink:href="#aB"/><use transform="matrix(0.07407407407407408,0,0,0.07407407407407408,16.222222222222225,0)" xlink:href="#ay"/></g><path d="M25 0v-190h50V0H25zm-5-208v-5l45-51h45v8l-60 48H20" id="bK"/><g id="am"><use transform="matrix(0.07407407407407408,0,0,0.07407407407407408,0,0)" xlink:href="#aE"/><use transform="matrix(0.07407407407407408,0,0,0.07407407407407408,14.814814814814817,0)" xlink:href="#av"/><use transform="matrix(0.07407407407407408,0,0,0.07407407407407408,29.629629629629633,0)" xlink:href="#bK"/><use transform="matrix(0.07407407407407408,0,0,0.07407407407407408,37.03703703703704,0)" xlink:href="#aB"/><use transform="matrix(0.07407407407407408,0,0,0.07407407407407408,53.25925925925927,0)" xlink:href="#av"/></g><path d="M121-226c-27-7-43 5-38 36h38v33H83V0H34v-157H6v-33h28c-9-59 32-81 87-68v32" id="bL"/><g id="an"><use transform="matrix(0.07407407407407408,0,0,0.07407407407407408,0,0)" xlink:href="#bJ"/><use transform="matrix(0.07407407407407408,0,0,0.07407407407407408,17.77777777777778,0)" xlink:href="#aq"/><use transform="matrix(0.07407407407407408,0,0,0.07407407407407408,25.185185185185187,0)" xlink:href="#av"/><use transform="matrix(0.07407407407407408,0,0,0.07407407407407408,40,0)" xlink:href="#aA"/><use transform="matrix(0.07407407407407408,0,0,0.07407407407407408,48.81481481481481,0)" xlink:href="#av"/><use transform="matrix(0.07407407407407408,0,0,0.07407407407407408,63.629629629629626,0)" xlink:href="#bL"/><use transform="matrix(0.07407407407407408,0,0,0.07407407407407408,72.44444444444446,0)" xlink:href="#ax"/><use transform="matrix(0.07407407407407408,0,0,0.07407407407407408,88.66666666666667,0)" xlink:href="#bo"/><use transform="matrix(0.07407407407407408,0,0,0.07407407407407408,99.03703703703705,0)" xlink:href="#as"/><use transform="matrix(0.07407407407407408,0,0,0.07407407407407408,122.74074074074076,0)" xlink:href="#av"/></g><path d="M132-34C116-15 102 5 68 4 31 3 10-16 10-54c-1-60 55-63 116-61 1-26-3-47-28-47-18 1-26 9-28 27l-52-2c7-38 36-58 82-57s74 22 75 68l1 82c-1 14 12 18 25 15v27c-30 8-71 5-69-32zm-48 3c29 0 43-24 42-57-32 0-66-3-65 30 0 17 8 27 23 27zM66-208v-5l45-51h45v8l-60 48H66" id="bM"/><g id="ao"><use transform="matrix(0.07407407407407408,0,0,0.07407407407407408,0,0)" xlink:href="#av"/><use transform="matrix(0.07407407407407408,0,0,0.07407407407407408,14.814814814814817,0)" xlink:href="#au"/><use transform="matrix(0.07407407407407408,0,0,0.07407407407407408,31.03703703703704,0)" xlink:href="#bM"/><use transform="matrix(0.07407407407407408,0,0,0.07407407407407408,45.851851851851855,0)" xlink:href="#aq"/><use transform="matrix(0.07407407407407408,0,0,0.07407407407407408,53.25925925925927,0)" xlink:href="#at"/><use transform="matrix(0.07407407407407408,0,0,0.07407407407407408,60.66666666666667,0)" xlink:href="#aE"/><use transform="matrix(0.07407407407407408,0,0,0.07407407407407408,75.4814814814815,0)" xlink:href="#ay"/></g></defs></g></svg>